<svg xmlns="http://www.w3.org/2000/svg" width="400" height="400" viewBox="0 0 400 400"><rect width="100%" height="100%" fill="#1a2b4a"/><path fill="#ffffff" d="M87.135 178.63v14.54h1.52q.91 0 1.51-.25t1.03-.81l9.58-12.12q.6-.76 1.26-1.06t1.66-.3h5.57l-11.69 14.42q-1.03 1.32-2.13 1.87.79.29 1.43.81.63.51 1.21 1.35l12.05 16.25h-5.69q-1.15 0-1.72-.32-.56-.33-.95-.95l-9.81-12.82q-.46-.65-1.06-.91t-1.73-.26h-2.04v15.26h-6.45v-34.7zm33.75 21.6h11.04l-4.23-11.55q-.31-.77-.64-1.82-.34-1.06-.68-2.28-.31 1.22-.64 2.29-.34 1.07-.65 1.86zm8.81-21.6 13.63 34.7h-4.99q-.84 0-1.37-.42t-.79-1.04l-2.6-7.08h-14.37l-2.59 7.08q-.2.55-.75 1-.55.46-1.37.46h-5.04l13.66-34.7zm35.37 0v34.7h-6.48v-34.7zm12.75 34.7h-5.93v-24.62h3.62q1.15 0 1.51 1.08l.39 1.82q.65-.72 1.35-1.32.71-.6 1.52-1.03.8-.43 1.72-.69.93-.25 2.03-.25 2.33 0 3.83 1.26t2.24 3.35q.58-1.22 1.44-2.1.87-.88 1.9-1.43t2.2-.81q1.16-.27 2.34-.27 2.04 0 3.62.63 1.58.62 2.66 1.82t1.65 2.93q.56 1.73.56 3.96v15.67h-5.93v-15.67q0-2.35-1.03-3.54t-3.02-1.19q-.91 0-1.69.31t-1.37.9-.93 1.48q-.33.89-.33 2.04v15.67h-5.95v-15.67q0-2.47-1-3.6t-2.92-1.13q-1.29 0-2.41.64-1.11.63-2.07 1.74zm40.2-17.42v11.04q1 1.22 2.19 1.72 1.19.51 2.58.51 1.35 0 2.43-.51 1.08-.5 1.83-1.53.76-1.03 1.17-2.61.4-1.57.4-3.7 0-2.16-.34-3.66-.35-1.5-1-2.44t-1.57-1.37q-.93-.43-2.1-.43-1.85 0-3.15.78-1.29.78-2.44 2.2m-.8-6.12.48 2.28q1.52-1.71 3.44-2.76 1.92-1.06 4.51-1.06 2.01 0 3.68.84t2.88 2.44q1.21 1.59 1.87 3.93t.66 5.37q0 2.76-.74 5.11t-2.12 4.08-3.34 2.7-4.38.97q-2.06 0-3.53-.64-1.46-.63-2.61-1.76v10.08h-5.93v-32.66h3.62q1.15 0 1.51 1.08m33.03-1.47q2.73 0 4.98.89 2.24.89 3.84 2.52 1.59 1.63 2.46 3.98.86 2.36.86 5.26 0 2.93-.86 5.28-.87 2.35-2.46 4.01-1.6 1.65-3.84 2.54-2.25.89-4.98.89-2.76 0-5.02-.89-2.25-.89-3.85-2.54-1.6-1.66-2.47-4.01-.88-2.35-.88-5.28 0-2.9.88-5.26.87-2.35 2.47-3.98t3.85-2.52q2.26-.89 5.02-.89m0 20.81q3.07 0 4.55-2.06 1.47-2.07 1.47-6.05 0-3.99-1.47-6.07-1.48-2.09-4.55-2.09-3.12 0-4.62 2.1t-1.5 6.06 1.5 6.03q1.5 2.08 4.62 2.08m21.91-18.94.36 2.79q1.15-2.21 2.74-3.47 1.58-1.26 3.74-1.26 1.7 0 2.74.74l-.39 4.44q-.12.44-.35.62-.22.18-.61.18-.36 0-1.07-.12-.7-.12-1.38-.12-.98 0-1.75.28-.77.29-1.38.83t-1.08 1.31-.87 1.75v15.17h-5.93v-24.62h3.48q.91 0 1.27.32t.48 1.16m20.88 23.52q-3.22 0-4.93-1.81-1.72-1.81-1.72-5v-13.75h-2.52q-.48 0-.81-.32-.34-.31-.34-.93v-2.35l3.96-.65 1.25-6.72q.12-.48.45-.75.34-.26.87-.26h3.07v7.75h6.58v4.23h-6.58v13.34q0 1.15.56 1.8.57.65 1.55.65.55 0 .93-.13.37-.14.64-.28.28-.14.5-.28.21-.13.43-.13.26 0 .43.13.17.14.36.4l1.78 2.88q-1.3 1.08-2.98 1.63t-3.48.55m26.02-22.34-1.35 2.14q-.24.38-.5.54-.27.15-.67.15-.44 0-.93-.24t-1.14-.54-1.47-.54q-.83-.24-1.96-.24-1.75 0-2.75.75-.99.74-.99 1.94 0 .79.51 1.33.52.54 1.37.95t1.93.73q1.08.33 2.2.71 1.11.38 2.19.88 1.08.49 1.94 1.24.85.76 1.36 1.82.52 1.05.52 2.54 0 1.78-.64 3.28-.63 1.5-1.88 2.59t-3.08 1.7q-1.84.61-4.24.61-1.27 0-2.48-.22-1.22-.23-2.33-.64-1.12-.41-2.07-.96-.94-.55-1.66-1.2l1.36-2.26q.27-.4.63-.62t.91-.22 1.04.32q.5.31 1.14.67.65.36 1.53.67.87.31 2.22.31 1.05 0 1.81-.25t1.25-.66.72-.95.23-1.11q0-.87-.52-1.42t-1.37-.96-1.94-.73q-1.09-.33-2.23-.71t-2.24-.9q-1.09-.52-1.94-1.31t-1.37-1.94q-.51-1.15-.51-2.79 0-1.51.6-2.88.6-1.36 1.76-2.38t2.9-1.64q1.74-.61 4.02-.61 2.55 0 4.64.84 2.08.84 3.48 2.21"/></svg>