<svg xmlns="http://www.w3.org/2000/svg" viewBox="0 0 640 140" role="img" aria-label="Royal Vitta">
  <defs>
    <style>
      .navy{fill:#0B1F6B}
      .cyan{fill:none;stroke:#22D3EE;stroke-width:10;stroke-linecap:round}
      .wm{fill:#0B1F6B;font-family:'Montserrat','Helvetica Neue',Arial,sans-serif;font-weight:700;font-size:46px;letter-spacing:6px}
    </style>
  </defs>
  <!-- Monogram RV -->
  <g transform="translate(10,18)">
    <!-- R -->
    <path class="navy" d="M0 0 h38 c18 0 30 12 30 28 c0 12 -7 22 -18 26 l22 50 h-22 l-20 -46 h-12 v46 H0 Z M18 16 v24 h18 c8 0 13 -5 13 -12 c0 -7 -5 -12 -13 -12 z"/>
    <!-- V -->
    <path class="navy" d="M70 0 h20 l20 70 l20 -70 h20 l-30 104 h-20 z"/>
    <!-- swoosh -->
    <path class="cyan" d="M-4 86 C 30 70, 90 110, 154 78"/>
  </g>
  <!-- Wordmark -->
  <text x="180" y="86" class="wm">ROYAL VITTA</text>
</svg>
